<svg width="17" height="17" viewBox="0 0 17 17" fill="none" xmlns="http://www.w3.org/2000/svg">
<path d="M13.2812 1.59375H3.71875C3.15535 1.59437 2.61521 1.81845 2.21683 2.21683C1.81845 2.61521 1.59437 3.15535 1.59375 3.71875V13.2812C1.59437 13.8446 1.81845 14.3848 2.21683 14.7832C2.61521 15.1816 3.15535 15.4056 3.71875 15.4062H13.2812C13.8446 15.4056 14.3848 15.1816 14.7832 14.7832C15.1816 14.3848 15.4056 13.8446 15.4062 13.2812V3.71875C15.4056 3.15535 15.1816 2.61521 14.7832 2.21683C14.3848 1.81845 13.8446 1.59437 13.2812 1.59375ZM12.0942 6.18541L7.63174 11.4979C7.58279 11.5562 7.52188 11.6033 7.45313 11.636C7.38439 11.6687 7.30942 11.6863 7.2333 11.6875H7.22434C7.14987 11.6875 7.07625 11.6718 7.00824 11.6415C6.94023 11.6112 6.87935 11.5669 6.82955 11.5115L4.91705 9.38652C4.86848 9.33501 4.8307 9.2743 4.80592 9.20798C4.78115 9.14165 4.76988 9.07104 4.77279 9.0003C4.77569 8.92955 4.7927 8.86011 4.82283 8.79603C4.85296 8.73196 4.89559 8.67455 4.94822 8.62719C5.00085 8.57983 5.06241 8.54347 5.1293 8.52024C5.19618 8.49701 5.26703 8.48739 5.33769 8.49193C5.40835 8.49648 5.47738 8.5151 5.54074 8.5467C5.60409 8.57831 5.66049 8.62226 5.70662 8.67598L7.21039 10.3468L11.2808 5.50209C11.3721 5.39653 11.5012 5.33114 11.6404 5.32005C11.7795 5.30897 11.9174 5.35308 12.0243 5.44284C12.1311 5.53261 12.1984 5.66083 12.2115 5.79978C12.2246 5.93873 12.1825 6.07726 12.0942 6.18541Z" fill="#5E5353"/>
</svg>
