<svg width="19" height="20" viewBox="0 0 19 20" fill="none" xmlns="http://www.w3.org/2000/svg">
<path d="M1 10C1 14.6946 4.80545 18.5 9.5 18.5C14.1946 18.5 18 14.6946 18 10C18 5.30545 14.1946 1.5 9.5 1.5C4.80545 1.5 1 5.30545 1 10Z" stroke="white" stroke-width="1.5" stroke-linecap="round" stroke-linejoin="round"/>
<path d="M10.35 1.54254C10.35 1.54254 12.9 4.90004 12.9 10C12.9 15.1 10.35 18.4575 10.35 18.4575M8.64999 18.4575C8.64999 18.4575 6.09999 15.1 6.09999 10C6.09999 4.90004 8.64999 1.54254 8.64999 1.54254M1.53549 12.975H17.4645M1.53549 7.02504H17.4645" stroke="white" stroke-width="1.5" stroke-linecap="round" stroke-linejoin="round"/>
</svg>
